# xmcd CD database file
#
# Track frame offsets:
#	150
#	18681
#	38564
#	52746
#	68431
#	82239
#	96123
#	110305
#	126064
#	145197
#
# Disc length: 2165 seconds
#
# Revision: 1
# Processed by: cddbd v1.5.2PL0 Copyright (c) Steve Scherf et al.
# Submitted via: CDex 2.21
#
DISCID=7a08730a
DTITLE=Crystal Gayle - Straight To The Heart
DYEAR=1986
DGENRE=Country
TTITLE0=Straight To The Heart
TTITLE1=Cry
TTITLE2=Take This Heart
TTITLE3=A Little Bit Closer
TTITLE4=Do I Have To Say Goodbye
TTITLE5=Deep Down
TTITLE6=Crazy In The Heart
TTITLE7=Only Love Can Save Me Now
TTITLE8=Nobody Should Have To Love This Way
TTITLE9=Lonely Girl
EXTD=YEAR: 1986
EXTT0=
EXTT1=
EXTT2=
EXTT3=
EXTT4=
EXTT5=
EXTT6=
EXTT7=
EXTT8=
EXTT9=
PLAYORDER=
